<?xml version="1.0" encoding="utf-8"?>
<!-- Generator: Adobe Illustrator 21.0.0, SVG Export Plug-In . SVG Version: 6.00 Build 0)  -->
<svg version="1.1" id="Layer_1" xmlns="http://www.w3.org/2000/svg" xmlns:xlink="http://www.w3.org/1999/xlink" x="0px" y="0px"
	 viewBox="0 0 459.3 500" style="enable-background:new 0 0 459.3 500;" xml:space="preserve">
<style type="text/css">
	.st0{fill:#92E3A9;}
	.st1{opacity:0.3;fill:#FFFFFF;enable-background:new    ;}
	.st2{opacity:0.5;}
	.st3{fill:#FFFFFF;}
	.st4{opacity:0.4;fill:#FFFFFF;enable-background:new    ;}
	.st5{fill:none;stroke:#263238;stroke-linecap:round;stroke-linejoin:round;}
	.st6{fill:#263238;stroke:#263238;stroke-linecap:round;stroke-linejoin:round;}
	.st7{fill:none;stroke:#FFFFFF;stroke-width:0.5;stroke-linecap:round;stroke-linejoin:round;}
	.st8{fill:#FFFFFF;stroke:#263238;stroke-linecap:round;stroke-linejoin:round;}
	.st9{fill:#92E3A9;stroke:#263238;stroke-linecap:round;stroke-linejoin:round;}
	.st10{fill:#263238;}
</style>
<g id="freepik--Floor--inject-19">
	<ellipse class="st0" cx="235.7" cy="475.7" rx="182.1" ry="20.6"/>
	<ellipse class="st1" cx="235.7" cy="475.7" rx="182.1" ry="20.6"/>
</g>
<g id="freepik--Plants--inject-19">
	<path class="st0" d="M118.8,179.9c-0.1,0,1.3-7.1,1.5-7.6c1.6-5.1,7.8-13.9,13.7-13.8c3.9,0.1,7,3.4,6.8,7.2c0,0.3,0,0.5-0.1,0.8
		c-0.4,4.2-4.2,7.7-7.6,9.8C129.1,178.7,118.8,179.9,118.8,179.9z"/>
	<path class="st0" d="M107.2,132.2c5.6,2,8.4,12.4,8.2,17.7c0,0.5-1.1,7.6-1.2,7.6h-0.1c0.4,1.6,0.9,3.4,1.4,5.3
		c0.8,3.6,1.7,7.6,2.4,12.1c0.8,4.8,1.3,9.7,1.6,14.5c0.3,5.4,0.1,10.9-0.6,16.3c0,0.1,0,0.1,0,0.2c0.7-1.6,2.9-5.9,3.1-6.3
		c2.9-4.4,11.2-11.4,16.9-9.7c3.7,1.1,5.8,5.1,4.7,8.8c-0.1,0.2-0.2,0.5-0.3,0.7c-1.5,3.9-6.1,6.4-9.9,7.4
		c-4.3,1.2-13.9-0.2-14.7-0.3c-0.8,5.5-2,10.9-3.5,16.3c-0.9,3.1-1.8,6.2-2.9,9.3c0.7-1.3,1.3-2.5,1.4-2.7
		c2.9-4.4,11.2-11.4,16.9-9.7c3.7,1.1,5.8,5.1,4.7,8.8c-0.1,0.2-0.2,0.5-0.3,0.7c-1.5,3.9-6.1,6.4-9.9,7.5c-3.8,1.1-12.1,0-14.3-0.3
		c-0.4,1.2-0.8,2.4-1.2,3.6c-1.9,5.7-3.9,11.4-5.7,17c-0.6,1.9-1.2,3.9-1.7,5.9c0.6-1.2,1.1-2.2,1.2-2.3c2.9-4.4,11.2-11.4,16.9-9.7
		c3.7,1.2,5.8,5.1,4.7,8.8c-0.1,0.2-0.1,0.4-0.2,0.7c-1.5,3.9-6.1,6.4-9.9,7.4c-3.8,1.1-11.3,0.1-13.9-0.2c-0.5,2.1-1,4.1-1.4,6.1
		c-0.2,1.4-0.6,2.7-0.7,4.1c-0.2,1.4-0.4,2.7-0.6,4.1c-0.3,2.6-0.6,5.3-0.8,7.8c-0.2,1.8-0.3,3.5-0.4,5.1c0.6-1.9,1.9-5.8,2-6.1
		c2.1-4.2,5.2-7.7,9.1-10.4c0.2-0.5,0.5-0.9,0.8-1.3c2.1-3.3,6.5-4.2,9.7-2.1c0.2,0.1,0.4,0.3,0.6,0.4c4.5,3.8,3.4,14.6,1.3,19.5
		c-0.1,0.3-1.8,3.3-2.9,5.1c0.8-1,1.6-1.9,2.4-3c1.7-2,3.4-4,5.2-6.1l2.8-3c0.9-1,2-2,3-3c2.4-2.3,4.9-4.5,7.5-6.7
		c-1.8-1.4-8-6.7-9.8-10.3c-1.8-3.6-3.1-8.6-1.2-12.3c1.6-3.5,5.8-5.1,9.3-3.5c0.2,0.1,0.5,0.2,0.7,0.4c5,3.2,5.5,13.9,4.2,19
		c0,0.3-1.4,3.9-2.2,5.9c1.6-1.3,3.1-2.6,4.8-3.8c4.7-3.6,9.6-7.2,14.4-10.7l4.4-3.3c-0.6-0.5-8.1-6.6-10.2-10.6
		c-1.8-3.6-3.1-8.6-1.2-12.3c1.6-3.6,5.8-5.1,9.4-3.5c0.2,0.1,0.4,0.2,0.7,0.3c5,3.2,5.5,13.9,4.2,19c-0.1,0.4-2.1,5.6-2.6,6.9
		c3.2-2.4,6.5-4.9,9.5-7.4c4.2-3.4,8.1-7.1,11.8-11c-0.3-0.2-8.2-6.5-10.2-10.6c-1.8-3.6-3.1-8.6-1.2-12.3c1.6-3.5,5.7-5.1,9.3-3.5
		c0.2,0.1,0.5,0.2,0.7,0.4c5.1,3.2,5.6,13.9,4.3,19c-0.1,0.3-1.6,4.3-2.3,6.1l0.3,0.2c3.6-4,6.8-8.4,9.7-13c1.6-2.5,3-5,4.3-7.5
		c-1.6-1-8.8-5.7-11.1-9.3c-2.3-3.6-4-8.2-2.5-12.1c1.2-3.7,5.2-5.7,8.9-4.5c0.2,0.1,0.4,0.1,0.6,0.2c5.4,2.6,7,13.2,6.3,18.5
		c0,0.3-0.8,3.2-1.3,5.2c0.6-1.1,1.2-2.3,1.7-3.3c1.9-4.1,3.5-7.9,4.8-11.4c0.8-1.9,1.4-3.8,1.9-5.4c-1-1.9-5.1-9.2-5.5-13.3
		c-0.4-4.1,0.2-9.1,3.3-11.9c2.8-2.7,7.2-2.7,10,0.1c0.2,0.2,0.3,0.4,0.5,0.6c3.6,4.8,0.2,14.9-2.9,19.3c-0.3,0.4-5.1,5.7-5.2,5.7
		v-0.1c-0.5,1.6-1.1,3.3-1.8,5.2c-1.3,3.4-2.7,7.3-4.6,11.4c-2,4.5-4.2,8.8-6.7,13c-2.8,4.7-5.9,9.2-9.5,13.3l-0.1,0.2
		c1.5-0.9,5.7-3.3,6.1-3.5c4.9-2.1,15.6-3.3,19.5,1.2c2.5,3,2,7.5-1,9.9c-0.2,0.2-0.4,0.3-0.6,0.4c-3.4,2.4-8.6,1.9-12.4,0.7
		c-4.3-1.3-11.4-7.9-12.1-8.4c-3.7,4.1-7.7,8-11.9,11.6c-2.5,2.1-5,4.2-7.6,6.2c1.3-0.7,2.5-1.4,2.7-1.5c4.9-2.1,15.6-3.3,19.5,1.2
		c2.5,3,2.1,7.4-0.9,9.9c-0.2,0.2-0.4,0.3-0.6,0.5c-3.4,2.4-8.6,1.9-12.4,0.7c-3.8-1.2-10.1-6.6-11.7-8.1l-3,2.3
		c-4.8,3.7-9.5,7.3-14.1,11c-1.6,1.3-3.2,2.7-4.7,4c1.2-0.7,2.1-1.2,2.3-1.3c4.9-2.1,15.6-3.3,19.5,1.2c2.5,3,2.1,7.4-0.9,9.9
		c-0.2,0.2-0.4,0.3-0.6,0.5c-3.4,2.4-8.6,1.9-12.4,0.8c-3.8-1.1-9.5-6.1-11.4-7.8c-1.5,1.4-3.1,2.8-4.5,4.3c-1,1-1.9,1.9-2.8,3
		s-1.9,2.1-2.7,3.1c-1.7,2-3.4,4.1-5,6.1c-1.1,1.4-2.1,2.7-3.2,4.1c1.6-1.3,4.8-3.8,5.1-4c4.5-2.8,14.9-5.6,19.4-1.8
		c2.9,2.6,3.1,7.1,0.5,10c-0.2,0.2-0.3,0.4-0.5,0.5c-3,2.9-8.2,3.2-12.1,2.6c-4.3-0.7-12.2-5.7-13.1-6.4c-1.7,2.2-3.3,4.4-4.9,6.6
		c-5.3,7.3-9.4,13.5-12.2,17.9l-0.3,0.4l-3.6-1.8c0.2-0.3,0.4-0.6,0.6-0.9c2.9-4.4,7.2-10.6,12.7-17.9c1.7-2.3,3.6-4.7,5.6-7.2
		c-2-2.2-3.9-4.5-5.7-7c-4.2,1.6-12.9,1.7-14,1.7c-0.2,2.8-0.3,5.5-0.4,8.1c-0.4,9-0.3,16.5-0.2,21.7v0.6l-4-1.9
		c0-5.2,0.2-12.2,0.7-20.5c0.2-2.9,0.4-5.9,0.7-9c-1.1-0.3-10.2-2.6-13.6-5.4c-3.1-2.5-6.4-6.5-6.2-10.7c0-3.9,3.1-7.1,7-7.1
		c0.3,0,0.5,0,0.8,0c5.9,0.8,10.8,10.3,11.8,15.5c0,0.3,0.3,3.8,0.4,5.9c0.1-1.3,0.2-2.5,0.4-3.8c0.3-2.6,0.6-5.2,1-8
		c0.2-1.3,0.4-2.7,0.6-4c0.2-1.4,0.6-2.8,0.9-4.2c0.7-3.2,1.6-6.5,2.6-9.7c-2.3-0.2-10.3-1.2-13.8-3.2c-3.5-2-7.3-5.5-7.8-9.6
		c-0.6-3.8,2-7.4,5.8-8.1c0.3,0,0.5-0.1,0.8-0.1c5.9-0.2,12.3,8.5,14,13.5c0.1,0.3,1,4.1,1.4,6.1c0.6-1.9,1.2-3.9,1.9-5.8
		c1.9-5.7,4-11.3,6.1-16.9c0.6-1.7,1.3-3.5,1.9-5.2c-0.8,0-10.4-1-14.3-3.2c-3.4-1.9-7.3-5.5-7.8-9.6c-0.6-3.9,2-7.5,5.9-8.1
		c0.2,0,0.5-0.1,0.7-0.1c6-0.2,12.3,8.5,14.1,13.5c0.1,0.4,1.3,5.7,1.6,7.2c1.4-3.8,2.7-7.6,3.8-11.4c1.6-5.1,2.9-10.4,3.8-15.6
		c-0.4,0-10.4-0.9-14.4-3.2c-3.5-1.9-7.3-5.5-7.8-9.6c-0.6-3.9,2-7.5,5.9-8.1c0.2,0,0.5-0.1,0.7-0.1c5.9-0.1,12.3,8.5,14,13.5
		c0.1,0.3,1,4.4,1.4,6.4h0.3c0.8-5.3,1.1-10.8,0.9-16.2c0-3-0.3-5.8-0.6-8.6c-1.9,0-10.5,0-14.3-1.6c-3.8-1.6-7.8-4.6-8.8-8.7
		c-1-3.8,1.2-7.6,4.9-8.7c0.3-0.1,0.5-0.1,0.8-0.2c5.9-0.8,13.2,7.1,15.5,11.9c0.1,0.3,1.1,3.1,1.8,5.1c-0.1-1.2-0.3-2.5-0.4-3.7
		c-0.6-4.5-1.4-8.5-2.2-12.1c-0.5-2-0.9-3.8-1.3-5.6c-1.9-0.9-9.3-4.9-11.9-8s-4.8-7.7-3.8-11.8c0.8-3.8,4.6-6.2,8.4-5.3
		C106.7,132,107,132.1,107.2,132.2z"/>
	<path class="st0" d="M214.9,224c-4.7-0.2-14-5-14-5s5-5.2,5.4-5.5c4.2-3.3,14.1-7.3,19.1-4c3.2,2.3,3.9,6.7,1.7,9.8
		c-0.1,0.2-0.3,0.4-0.5,0.6C223.9,223.2,218.8,224.1,214.9,224z"/>
	<g class="st2">
		<path class="st3" d="M118.8,179.9c-0.1,0,1.3-7.1,1.5-7.6c1.6-5.1,7.8-13.9,13.7-13.8c3.9,0.1,7,3.4,6.8,7.2c0,0.3,0,0.5-0.1,0.8
			c-0.4,4.2-4.2,7.7-7.6,9.8C129.1,178.7,118.8,179.9,118.8,179.9z"/>
		<path class="st3" d="M107.2,132.2c5.6,2,8.4,12.4,8.2,17.7c0,0.5-1.1,7.6-1.2,7.6h-0.1c0.4,1.6,0.9,3.4,1.4,5.3
			c0.8,3.6,1.7,7.6,2.4,12.1c0.8,4.8,1.3,9.7,1.6,14.5c0.3,5.4,0.1,10.9-0.6,16.3c0,0.1,0,0.1,0,0.2c0.7-1.6,2.9-5.9,3.1-6.3
			c2.9-4.4,11.2-11.4,16.9-9.7c3.7,1.1,5.8,5.1,4.7,8.8c-0.1,0.2-0.2,0.5-0.3,0.7c-1.5,3.9-6.1,6.4-9.9,7.4
			c-4.3,1.2-13.9-0.2-14.7-0.3c-0.8,5.5-2,10.9-3.5,16.3c-0.9,3.1-1.8,6.2-2.9,9.3c0.7-1.3,1.3-2.5,1.4-2.7
			c2.9-4.4,11.2-11.4,16.9-9.7c3.7,1.1,5.8,5.1,4.7,8.8c-0.1,0.2-0.2,0.5-0.3,0.7c-1.5,3.9-6.1,6.4-9.9,7.5
			c-3.8,1.1-12.1,0-14.3-0.3c-0.4,1.2-0.8,2.4-1.2,3.6c-1.9,5.7-3.9,11.4-5.7,17c-0.6,1.9-1.2,3.9-1.7,5.9c0.6-1.2,1.1-2.2,1.2-2.3
			c2.9-4.4,11.2-11.4,16.9-9.7c3.7,1.2,5.8,5.1,4.7,8.8c-0.1,0.2-0.1,0.4-0.2,0.7c-1.5,3.9-6.1,6.4-9.9,7.4
			c-3.8,1.1-11.3,0.1-13.9-0.2c-0.5,2.1-1,4.1-1.4,6.1c-0.2,1.4-0.6,2.7-0.7,4.1c-0.2,1.4-0.4,2.7-0.6,4.1c-0.3,2.6-0.6,5.3-0.8,7.8
			c-0.2,1.8-0.3,3.5-0.4,5.1c0.6-1.9,1.9-5.8,2-6.1c2.1-4.2,5.2-7.7,9.1-10.4c0.2-0.5,0.5-0.9,0.8-1.3c2.1-3.3,6.5-4.2,9.7-2.1
			c0.2,0.1,0.4,0.3,0.6,0.4c4.5,3.8,3.4,14.6,1.3,19.5c-0.1,0.3-1.8,3.3-2.9,5.1c0.8-1,1.6-1.9,2.4-3c1.7-2,3.4-4,5.2-6.1l2.8-3
			c0.9-1,2-2,3-3c2.4-2.3,4.9-4.5,7.5-6.7c-1.8-1.4-8-6.7-9.8-10.3c-1.8-3.6-3.1-8.6-1.2-12.3c1.6-3.5,5.8-5.1,9.3-3.5
			c0.2,0.1,0.5,0.2,0.7,0.4c5,3.2,5.5,13.9,4.2,19c0,0.3-1.4,3.9-2.2,5.9c1.6-1.3,3.1-2.6,4.8-3.8c4.7-3.6,9.6-7.2,14.4-10.7
			l4.4-3.3c-0.6-0.5-8.1-6.6-10.2-10.6c-1.8-3.6-3.1-8.6-1.2-12.3c1.6-3.6,5.8-5.1,9.4-3.5c0.2,0.1,0.4,0.2,0.7,0.3
			c5,3.2,5.5,13.9,4.2,19c-0.1,0.4-2.1,5.6-2.6,6.9c3.2-2.4,6.5-4.9,9.5-7.4c4.2-3.4,8.1-7.1,11.8-11c-0.3-0.2-8.2-6.5-10.2-10.6
			c-1.8-3.6-3.1-8.6-1.2-12.3c1.6-3.5,5.7-5.1,9.3-3.5c0.2,0.1,0.5,0.2,0.7,0.4c5.1,3.2,5.6,13.9,4.3,19c-0.1,0.3-1.6,4.3-2.3,6.1
			l0.3,0.2c3.6-4,6.8-8.4,9.7-13c1.6-2.5,3-5,4.3-7.5c-1.6-1-8.8-5.7-11.1-9.3c-2.3-3.6-4-8.2-2.5-12.1c1.2-3.7,5.2-5.7,8.9-4.5
			c0.2,0.1,0.4,0.1,0.6,0.2c5.4,2.6,7,13.2,6.3,18.5c0,0.3-0.8,3.2-1.3,5.2c0.6-1.1,1.2-2.3,1.7-3.3c1.9-4.1,3.5-7.9,4.8-11.4
			c0.8-1.9,1.4-3.8,1.9-5.4c-1-1.9-5.1-9.2-5.5-13.3c-0.4-4.1,0.2-9.1,3.3-11.9c2.8-2.7,7.2-2.7,10,0.1c0.2,0.2,0.3,0.4,0.5,0.6
			c3.6,4.8,0.2,14.9-2.9,19.3c-0.3,0.4-5.1,5.7-5.2,5.7v-0.1c-0.5,1.6-1.1,3.3-1.8,5.2c-1.3,3.4-2.7,7.3-4.6,11.4
			c-2,4.5-4.2,8.8-6.7,13c-2.8,4.7-5.9,9.2-9.5,13.3l-0.1,0.2c1.5-0.9,5.7-3.3,6.1-3.5c4.9-2.1,15.6-3.3,19.5,1.2c2.5,3,2,7.5-1,9.9
			c-0.2,0.2-0.4,0.3-0.6,0.4c-3.4,2.4-8.6,1.9-12.4,0.7c-4.3-1.3-11.4-7.9-12.1-8.4c-3.7,4.1-7.7,8-11.9,11.6
			c-2.5,2.1-5,4.2-7.6,6.2c1.3-0.7,2.5-1.4,2.7-1.5c4.9-2.1,15.6-3.3,19.5,1.2c2.5,3,2.1,7.4-0.9,9.9c-0.2,0.2-0.4,0.3-0.6,0.5
			c-3.4,2.4-8.6,1.9-12.4,0.7c-3.8-1.2-10.1-6.6-11.7-8.1l-3,2.3c-4.8,3.7-9.5,7.3-14.1,11c-1.6,1.3-3.2,2.7-4.7,4
			c1.2-0.7,2.1-1.2,2.3-1.3c4.9-2.1,15.6-3.3,19.5,1.2c2.5,3,2.1,7.4-0.9,9.9c-0.2,0.2-0.4,0.3-0.6,0.5c-3.4,2.4-8.6,1.9-12.4,0.8
			c-3.8-1.1-9.5-6.1-11.4-7.8c-1.5,1.4-3.1,2.8-4.5,4.3c-1,1-1.9,1.9-2.8,3s-1.9,2.1-2.7,3.1c-1.7,2-3.4,4.1-5,6.1
			c-1.1,1.4-2.1,2.7-3.2,4.1c1.6-1.3,4.8-3.8,5.1-4c4.5-2.8,14.9-5.6,19.4-1.8c2.9,2.6,3.1,7.1,0.5,10c-0.2,0.2-0.3,0.4-0.5,0.5
			c-3,2.9-8.2,3.2-12.1,2.6c-4.3-0.7-12.2-5.7-13.1-6.4c-1.7,2.2-3.3,4.4-4.9,6.6c-5.3,7.3-9.4,13.5-12.2,17.9l-0.3,0.4l-3.6-1.8
			c0.2-0.3,0.4-0.6,0.6-0.9c2.9-4.4,7.2-10.6,12.7-17.9c1.7-2.3,3.6-4.7,5.6-7.2c-2-2.2-3.9-4.5-5.7-7c-4.2,1.6-12.9,1.7-14,1.7
			c-0.2,2.8-0.3,5.5-0.4,8.1c-0.4,9-0.3,16.5-0.2,21.7v0.6l-4-1.9c0-5.2,0.2-12.2,0.7-20.5c0.2-2.9,0.4-5.9,0.7-9
			c-1.1-0.3-10.2-2.6-13.6-5.4c-3.1-2.5-6.4-6.5-6.2-10.7c0-3.9,3.1-7.1,7-7.1c0.3,0,0.5,0,0.8,0c5.9,0.8,10.8,10.3,11.8,15.5
			c0,0.3,0.3,3.8,0.4,5.9c0.1-1.3,0.2-2.5,0.4-3.8c0.3-2.6,0.6-5.2,1-8c0.2-1.3,0.4-2.7,0.6-4c0.2-1.4,0.6-2.8,0.9-4.2
			c0.7-3.2,1.6-6.5,2.6-9.7c-2.3-0.2-10.3-1.2-13.8-3.2c-3.5-2-7.3-5.5-7.8-9.6c-0.6-3.8,2-7.4,5.8-8.1c0.3,0,0.5-0.1,0.8-0.1
			c5.9-0.2,12.3,8.5,14,13.5c0.1,0.3,1,4.1,1.4,6.1c0.6-1.9,1.2-3.9,1.9-5.8c1.9-5.7,4-11.3,6.1-16.9c0.6-1.7,1.3-3.5,1.9-5.2
			c-0.8,0-10.4-1-14.3-3.2c-3.4-1.9-7.3-5.5-7.8-9.6c-0.6-3.9,2-7.5,5.9-8.1c0.2,0,0.5-0.1,0.7-0.1c6-0.2,12.3,8.5,14.1,13.5
			c0.1,0.4,1.3,5.7,1.6,7.2c1.4-3.8,2.7-7.6,3.8-11.4c1.6-5.1,2.9-10.4,3.8-15.6c-0.4,0-10.4-0.9-14.4-3.2c-3.5-1.9-7.3-5.5-7.8-9.6
			c-0.6-3.9,2-7.5,5.9-8.1c0.2,0,0.5-0.1,0.7-0.1c5.9-0.1,12.3,8.5,14,13.5c0.1,0.3,1,4.4,1.4,6.4h0.3c0.8-5.3,1.1-10.8,0.9-16.2
			c0-3-0.3-5.8-0.6-8.6c-1.9,0-10.5,0-14.3-1.6c-3.8-1.6-7.8-4.6-8.8-8.7c-1-3.8,1.2-7.6,4.9-8.7c0.3-0.1,0.5-0.1,0.8-0.2
			c5.9-0.8,13.2,7.1,15.5,11.9c0.1,0.3,1.1,3.1,1.8,5.1c-0.1-1.2-0.3-2.5-0.4-3.7c-0.6-4.5-1.4-8.5-2.2-12.1c-0.5-2-0.9-3.8-1.3-5.6
			c-1.9-0.9-9.3-4.9-11.9-8s-4.8-7.7-3.8-11.8c0.8-3.8,4.6-6.2,8.4-5.3C106.7,132,107,132.1,107.2,132.2z"/>
		<path class="st3" d="M214.9,224c-4.7-0.2-14-5-14-5s5-5.2,5.4-5.5c4.2-3.3,14.1-7.3,19.1-4c3.2,2.3,3.9,6.7,1.7,9.8
			c-0.1,0.2-0.3,0.4-0.5,0.6C223.9,223.2,218.8,224.1,214.9,224z"/>
	</g>
	<path class="st0" d="M160.5,340.5c0,0-28.2-68.1-44-65.1c-15.8,3,27.1,108.5,27.1,108.5S93.9,290.2,60,290.2s12.4,103.6,55.3,138.1
		c0,0-67.7-73-107.3-57.2c-39.5,15.8,79,89.8,79,89.8s-68.9-21.7-61-4.9s29.4,19.7,29.4,19.7l193.1,3.9l-61-5.9
		c0,0,63.2-31.6,46.3-44.4S179.7,444,179.7,444s64.4-71,51.9-97.7c-12.4-26.6-67.8,48.3-67.8,48.3S209.1,299,200,282.3
		C190.9,265.5,160.5,340.5,160.5,340.5z"/>
	<path class="st4" d="M160.5,340.5c0,0-28.2-68.1-44-65.1c-15.8,3,27.1,108.5,27.1,108.5S93.9,290.2,60,290.2s12.4,103.6,55.3,138.1
		c0,0-67.7-73-107.3-57.2c-39.5,15.8,79,89.8,79,89.8s-68.9-21.7-61-4.9s29.4,19.7,29.4,19.7l193.1,3.9l-61-5.9
		c0,0,63.2-31.6,46.3-44.4S179.7,444,179.7,444s64.4-71,51.9-97.7c-12.4-26.6-67.8,48.3-67.8,48.3S209.1,299,200,282.3
		C190.9,265.5,160.5,340.5,160.5,340.5z"/>
	<path class="st5" d="M169.6,344c-24.9,73.4-24.9,125.3-24.9,125.3s29.4,1.1,59.9-21.5"/>
	<path class="st5" d="M157.2,383.6c-5.1-21.9-11.9-43.5-20.3-64.4"/>
	<path class="st5" d="M83.8,340.7l63.2,93.7c0,0,42.9-36.1,57.6-56.5"/>
	<path class="st5" d="M145.9,457c0,0-66.6-31.6-93.7-49.6"/>
</g>
<g id="freepik--Character--inject-19">
	<path class="st6" d="M294.4,32.9c1.9-4.2,2.8-8.7,2.7-13.3c0-8.5-10.3-13.4-22.4-14.8s-17.4,3.6-15.6,6.7c1.9,2.6,4.1,4.8,6.7,6.7
		c0,0-12.1-6.7-20.1-1.3s3.6,3.1,1.3,8.5s-14.8,3.1-17.9,17.4c-3.1,14.3,5.8,28.6-2.2,34.9s-32.3-2.2-39.3,13.4s3,22.6-14,32.4
		s-29.4,19.4-24.4,43.6c4.9,24.1,21,32.6,52.8,24.1s29.5-27.7,39.9-47.5s26.4-15.6,31.3-26.8c4.9-11.2-1.3-24.6-0.9-34.9
		c0.5-10.3,10.7-12.5,14.8-24.7S294.4,32.9,294.4,32.9z"/>
	<path class="st7" d="M152.8,166.7c-0.8,1.7-1.3,3.5-1.2,5.4"/>
	<path class="st7" d="M277.3,24.1c0,0-5.6-6.5,5.2-3.5c13.5,3.8-2.4,19.5-8.5,22.6c-12.3,6.3-28.5,4.3-38,15.7
		c-8.6,10.3,3,21.1-2.1,29.3c-5.2,8.2-25.8,3.4-32.7,13.3s12.5,31-7.3,42.6c-14.3,8.4-30,11.6-37.6,18.3"/>
	<path class="st7" d="M245.2,62.3c-1.2,2.7-1.5,5.8-1,8.7c1.7,7.3,11.6,21.1,2.6,28.8s-24.6,7.3-27.1,16.4s2.6,34-6,45.6
		c-8.6,11.6-25.4,10.8-34.4,18.5c-9,7.7-7.7,12.1-7.7,12.1"/>
	<path class="st7" d="M249.7,53.8c-0.8,1.1-1.5,2.3-2.2,3.4"/>
	<path class="st8" d="M300.2,166.1l2.2,17.1c0,0,11.4,11.4,19.8,18.4c8.4,7,29.8,22,29.8,22l-10.9,3.1c0,0-35.6-21.1-42.6-22.8
		c-7-1.7-12.3-11.8-14.5-14.9S294.5,163,300.2,166.1z"/>
	<path class="st8" d="M322,444.1c0,0,10.7,9.1,15.2,12.1s9.6,4.4,8.8,6.1c-0.8,1.7-3,3.3-13.5,1.9c-10.5-1.4-13.5-5-15.4-5.5
		s-6.6,0.8-10.2-1.4c-3.6-2.2,2.1-15.3,2.1-15.3C312.2,445.8,317.7,446.7,322,444.1z"/>
	<path class="st8" d="M345.9,462.3c0-0.1,0-0.2,0-0.3c-6,0.6-12.1,0-18-1.7c-6.8-1.6-8.8-5.2-15.2-5.2c-2.5,0-5-0.4-7.4-1.2
		c-0.1,1.3,0.4,2.6,1.3,3.4c3.6,2.2,8.3,0.8,10.2,1.4c1.9,0.6,5,4.1,15.4,5.5C342.8,465.6,345.1,463.9,345.9,462.3z"/>
	<path class="st8" d="M265.7,77.1c0,0,2.1,13.9-0.6,19.6c-2.7,5.6-11,6.2-18.1,7.4c-7.1,1.2-23.4,7.4-21.6,23.4
		c1.8,16,22.2,50.7,22.2,60.5s-6.2,14.8-13,33.8c-6.8,19-5.9,54.3-3.8,77.1c1.6,15.1,4.5,29.9,8.9,44.5c0,0-17.1,27.6-24.7,39.4
		c-7.6,11.8-34.2,63.4-34.2,63.4s0,1.8,4.1,3c2.9,0.7,5.9,0.9,8.9,0.6c0,0,51-61.4,60.5-71.7s18.4-28.5,19.6-36.8
		c1.2-8.3-0.3-59-0.3-59s10.7,25.5,19,38.5c5.1,8,9.7,16.2,13.9,24.7c-1.2,10.7-1.2,21.6,0,32.3c2.1,14.8,0.3,62.4,2.4,66.3
		c2.1,3.9,10.1,2.2,11.9,0.5c1.8-1.8,2.6-13.3,2.6-13.3s3.6-36.1,5.7-53.1s5.7-31.4,4.5-35.3c-1.2-3.9-8.6-45.1-14.2-64.6
		c-5.6-19.5-22.8-56-26.6-65.5s-5.9-18.1-5.3-21.1s12.2-20.7,15.2-25.5c3.5-6.5,3.7-14.3,0.6-21c-3.6-7.7,0-18.1-0.6-24.3
		c-0.6-6.2-9.8-8.9-14.5-11.3c-4.7-2.4-6.5-7.7-6.5-12.2c0.3-3.7,1.2-7.4,2.7-10.9C284.2,86.6,269.5,77.1,265.7,77.1z"/>
	<path class="st5" d="M301.6,140.5c-1.6-4-2.9-8-3.9-12.2"/>
	<path class="st5" d="M263.1,173.5c0,0,5.4,1.2,16.1-4.2"/>
	<path class="st6" d="M319.3,278.1c-5.4-18.7-21.3-52.8-26.1-64.1c-22.8,8.5-44.1,1.3-54.1-3.5c-1.4,3.2-3,6.8-4.6,11.2
		c-6.8,19-5.9,54.3-3.8,77.1c1.6,15.1,4.5,29.9,8.9,44.5c0,0-17.1,27.6-24.7,39.4c-7.6,11.8-34.2,63.4-34.2,63.4s0,1.8,4.1,3
		c2.9,0.7,5.9,0.9,8.9,0.6c0,0,51-61.4,60.5-71.7s18.4-28.5,19.6-36.8c1.2-8.3-0.3-59-0.3-59s10.7,25.5,19,38.5
		c5.1,8,9.7,16.2,13.9,24.7c-1.2,10.7-1.2,21.6,0,32.3c2.1,14.8,0.3,62.4,2.4,66.3c2.1,3.9,10.1,2.2,11.9,0.5
		c1.8-1.8,2.6-13.3,2.6-13.3s3.6-36.1,5.7-53.1s5.7-31.4,4.5-35.3C332.3,339,325,297.6,319.3,278.1z"/>
	<polygon class="st9" points="435.4,259.3 435.4,255.4 438.7,255.4 438.7,225 435.4,225 403.4,225 400.1,225 400.1,255.4 
		403.4,255.4 403.4,259.3 400.1,259.3 400.1,266.3 412.6,266.3 412.6,263.9 426.2,263.9 426.2,266.3 438.7,266.3 438.7,259.3 	"/>
	<path class="st9" d="M228.3,215.9h223.6c1.9,0,3.4,1.5,3.4,3.4v6.8c0,1.9-1.5,3.4-3.4,3.4H228.3l0,0V215.9L228.3,215.9z"/>
	<path class="st9" d="M375.1,213.8h13.6c1,0,1.9,0.8,1.9,1.9v13.9c0,1-0.8,1.9-1.9,1.9h-13.6c-1,0-1.9-0.8-1.9-1.9v-13.9
		C373.3,214.7,374.1,213.8,375.1,213.8z"/>
	
		<ellipse transform="matrix(0.1616 -0.9869 0.9869 0.1616 -51.702 384.4601)" class="st9" cx="200.4" cy="222.7" rx="35.3" ry="35.3"/>
	<path class="st8" d="M207.7,222.6c4.2-2,6.9-6.2,7-10.8c0-6.9-6.4-12.6-14.3-12.6c-7.9,0-14.3,5.7-14.3,12.6
		c0.1,4.6,2.8,8.8,7,10.8c-4.2,2-6.9,6.2-7,10.8c0,6.9,6.4,12.6,14.3,12.6c7.9,0,14.3-5.7,14.3-12.6
		C214.5,228.7,211.8,224.6,207.7,222.6z"/>
	<path class="st8" d="M345,229.7c0,0,11.1,4.7,14.5,4.7s7.4-3.4,9.3-7.6c2-4.2,1.9-6.1,0.7-5.1l-2.4,1.9c0,0,1.9-4.2-0.2-3.7
		c-1.5,0.5-2.7,1.6-3.4,2.9c0,0-0.2-3.7-2.2-1.9c-1.3,1.2-2.4,2.5-3.4,3.9c0,0-0.2-4.7-1.5-3.4c-1.2,1.2-5.9,7.8-5.9,7.8L345,229.7z
		"/>
	<path class="st8" d="M357.8,224.8c0,0-0.7,5.9-4.4,6.9"/>
	<path class="st8" d="M363.4,222.9c0,0-1.9,9.3-4.9,10.8"/>
	<path class="st8" d="M367.1,223.6c-1,3.4-2.3,6.7-3.9,9.8"/>
	<path class="st8" d="M287.3,109c-3.9-2.6-6.1-7.1-5.9-11.8c0.3-3.7,1.3-7.3,2.8-10.7c0,0-14.5-9.5-18.4-9.5c0,0,2.1,13.9-0.6,19.6
		c-0.9,1.7-2.3,3.2-4,4c3.5,9.5,8.3,18.4,14.1,26.6C280.6,134,283.2,119.9,287.3,109z"/>
	<path class="st8" d="M242.5,106c-7.3,1.3-13.7,5.9-17.1,12.5c-5.8,11.3-31.4,62.5-29.2,65.5c12.4,17.5,57.6,30,62.2,34.6
		c4.6,4.8,9.6,9.2,15.1,13c4.6,2.9,13.8,1.7,15.4,0.8s2.9-4.6,0-4.6c-2.3,0-4.3-1.6-4.8-3.8c-0.4-1.7,4.6,1.7,7.1,0.4
		s-5.6-5.8-8.1-7.9c-2.5-2.1-4.6-5-7.9-5c-3.3,0-9.6,0-9.6,0s-15.4-11.1-24.7-19.4c-7.2-6.5-15.1-12.3-23.6-17.2l28.2-46.4"/>
	<path class="st8" d="M283,216.7c-2.5-2.1-4.6-5-7.9-5s-9.6,0-9.6,0s-15.4-11.1-24.7-19.4c-7.2-6.5-15.1-12.3-23.6-17.2l11.3-18.6
		c-5.8-3.5-12.4-5.4-19.1-5.5c-7.6,15.8-14.4,31.5-13.3,33.1c12.4,17.5,57.6,30,62.2,34.6c4.6,4.8,9.6,9.2,15.1,13
		c4.6,2.9,13.8,1.7,15.4,0.8c1.7-0.8,2.9-4.6,0-4.6c-2.3,0-4.3-1.6-4.8-3.8c-0.4-1.7,4.6,1.7,7.1,0.4
		C293.5,223.4,285.5,218.8,283,216.7z"/>
	<path class="st8" d="M298.3,56.7c-1.5-3-1.5-5.3-0.9-9.5c0.6-4.2-3-14.2-3-14.2l0,0c-3.6,6.3-14.1,10-18.7,11.4
		c-5.1,1.6,2.4,5.1,1.6,9.8c-0.8,4.7-11,7.5-11,7.5s-3-6.1-7.1-6.1s-7.1,9.5-4.7,14.5c1.3,2.9,4.3,4.5,7.4,3.9c0,0-0.3,8.9,5.3,11.6
		c6,2.9,12.3,5.1,18.7,6.8c3.6,0.6,7.1-1.2,8.6-6.5c1.2-5.4,2-10.8,2.4-16.3c2.5-1.6,4.8-3.5,6.8-5.7
		C305.1,61.7,299.8,59.6,298.3,56.7z"/>
	<path class="st10" d="M292.5,56.8c0,1.6-0.5,2.9-1.2,2.9s-1.2-1.3-1.2-2.9c0-1.6,0.5-2.9,1.2-2.9S292.5,55.2,292.5,56.8z"/>
	<path class="st5" d="M287.4,51.9c0,0,3.2-3.6,5.5-2.8"/>
	<path class="st5" d="M292.9,76.2c-2.9,0.9-6,0.2-8.3-1.9"/>
	<path class="st8" d="M180.9,446.2c0,0-7.1,14.2-6.8,16.1s14.3,12.1,20.9,15.7c6.6,3.6,18.5,4.1,17.6-0.8s-12.1-8.3-14.9-15.7
		c-1.5-3.9-2.7-7.8-3.8-11.8C189.4,449.8,184.8,448.5,180.9,446.2z"/>
	<path class="st8" d="M212.7,477.2c-5.1,0.7-10.2-0.1-14.9-2.1c-10.2-4.4-20.1-13.5-22.8-16c-0.5,1-0.8,2.1-0.9,3.2
		c0.3,1.9,14.3,12.1,20.9,15.7C201.5,481.6,213.3,482.1,212.7,477.2z"/>
</g>
</svg>
